<svg id="Layer_1" data-name="Layer 1" xmlns="http://www.w3.org/2000/svg" xmlns:xlink="http://www.w3.org/1999/xlink" viewBox="0 0 490.12 401.82"><defs><style>.cls-1{fill:none;}.cls-2{fill:#00a9ce;}.cls-3{clip-path:url(#clip-path);}.cls-4{fill:#1e1e1e;}.cls-5{fill:#fff;}.cls-6{fill:#727373;}</style><clipPath id="clip-path"><path class="cls-1" d="M313.11,211.82c-4.43,75.45-40,161.89-71.09,160.34-31.52-1.56-56.49-93.58-56.27-166.9.24-81.84,32-179.81,64.59-179.82C283.13,25.44,318.24,124.45,313.11,211.82Z"/></clipPath></defs><path class="cls-2" d="M245.06,386.35c-86.33,0-156.57-83.19-156.57-185.44S158.73,15.47,245.06,15.47,401.62,98.66,401.62,200.91,331.39,386.35,245.06,386.35Zm0-346.89c-73.1,0-132.58,72.43-132.58,161.45S172,362.36,245.06,362.36s132.57-72.43,132.57-161.45S318.16,39.46,245.06,39.46Z"/><g class="cls-3"><circle class="cls-4" cx="248.57" cy="202.32" r="140.58"/><path class="cls-5" d="M248.74,363.62q-3.6,0-7.21-.16c-88.86-3.88-158-79.33-154.11-168.19A161.29,161.29,0,1,1,248.74,363.62Zm-.3-281.16A119.86,119.86,0,1,0,368.31,207.55h0a119.87,119.87,0,0,0-114.51-125C252,82.5,250.22,82.46,248.44,82.46Z"/><path class="cls-5" d="M307.74,204.31c-4.91-6.27-11.9-9-16.9-10.21l-1.55-.37,1.38-.78a26.55,26.55,0,0,0,11.4-12.7,31.15,31.15,0,0,0-1.45-21.91c-5.4-12.2-22.15-17.9-35.91-17.21l-.66,0-.2-26.56-15.12.34,1.07,24.9-14.13.91-.43-25.55-15,.2.42,25.82-31.73.78,0,15.76,11-.06c.81-.06,5.18-.16,7.81,3.14a8.07,8.07,0,0,1,1.57,3.36l1.06,71.32c0,.39.09,4-2.71,5.9a6.06,6.06,0,0,1-3,1l-11.57.09L190,261l32.38-.74-.08,26.59,15.44-.33-.57-25.84,13.63-.25.25,26.27,15.14-.47-.56-26.15.63,0a72.09,72.09,0,0,0,19.66-3.24c5.9-1.83,11.47-3.56,16-7.35C313.19,240.09,318.31,217.83,307.74,204.31Zm-71.56-45.7.54-.09a53.35,53.35,0,0,1,9.09-.61c5.66.11,22.87.44,27.57,10.68a14.4,14.4,0,0,1-.23,12.21c-3.72,7.22-13.93,8.65-23.79,10a76.14,76.14,0,0,1-11.87.72h-.6Zm44.53,72.17c-4.38,7.91-16.49,9.44-28.2,10.92a97.63,97.63,0,0,1-14.09.75l-.6,0-1-36.2.56-.07a67.1,67.1,0,0,1,10.79-.64c6.7.14,27.13.57,32.74,11.82A14.81,14.81,0,0,1,280.71,230.78Z"/><path class="cls-5" d="M230.5,308.13v-.69l-29,.61.08-26.54-36.19.82,10.19-60.4,13.89-.1-.64-43.34-20.54.13-.09-56.83,31.43-.77-.42-26,49.07-.74,36.14-.8.23,29.28c14.55,3.87,28.47,12.64,34.93,27.25a51.36,51.36,0,0,1,1.9,37.57l-.26.66v0c1,1.05,2,2.16,2.86,3.31h0c18,23,10.16,58-8.87,73.86-7.72,6.44-16.27,9.1-23.14,11.24-1.76.55-3.54,1-5.33,1.49l.6,28.19Z"/><path class="cls-5" d="M221,288.17l.08-26.58-32.61.74,3.56-21.06,12.62-.09a4.73,4.73,0,0,0,2.3-.79c2.29-1.55,2.17-4.67,2.17-4.8l-1.06-71.23a6.81,6.81,0,0,0-1.3-2.72c-2.3-2.89-6.3-2.72-6.75-2.68l-12.31.08,0-18.25,31.71-.78L219,114.17l17.49-.23.43,25.49,11.6-.75-1.08-25,17.68-.39.2,26.52c14.05-.5,30.92,5.45,36.47,18a32.13,32.13,0,0,1,1.48,22.85,27.65,27.65,0,0,1-10.67,12.57c5,1.41,11.48,4.31,16.15,10.28h0c11,14.05,5.69,37.16-6,46.93-4.73,3.95-10.42,5.72-16.44,7.59a73.67,73.67,0,0,1-19.38,3.28l.56,26.14-17.67.56-.24-26.29-11.11.2.57,25.84Zm2.6-29.15-.08,26.58,12.89-.27-.57-25.84,16.17-.3.24,26.26,12.62-.4-.56-26.16,1.87-.05a71.51,71.51,0,0,0,19.32-3.17c5.78-1.8,11.24-3.5,15.59-7.13,10.85-9.06,15.79-30.47,5.64-43.46-4.68-6-11.4-8.61-16.2-9.76l-4.66-1.11,4.17-2.36a25.18,25.18,0,0,0,10.85-12.08,30.19,30.19,0,0,0-1.44-20.92c-5.17-11.69-21.37-17.13-34.7-16.46l-2,.09-.2-26.58-12.57.28L251.11,141l-16.67,1.07L234,116.48l-12.47.17.41,25.81-31.74.78,0,13.27,9.72-.06c.88-.06,5.77-.18,8.8,3.62a9.39,9.39,0,0,1,1.82,3.88l0,.24,1.06,71.32c0,.44.12,4.66-3.26,7a7.28,7.28,0,0,1-3.62,1.22l-10.59.08-2.69,16Zm13-15.36-1-38.51,1.66-.24a68.5,68.5,0,0,1,11-.65c6.91.14,27.89.59,33.84,12.52a16.11,16.11,0,0,1-.25,14.61c-4.69,8.46-17.12,10-29.14,11.55a98.77,98.77,0,0,1-14.27.76Zm1.54-36.34.9,33.88a95.47,95.47,0,0,0,13.31-.75c11.4-1.44,23.19-2.93,27.26-10.28h0a13.53,13.53,0,0,0,.2-12.27c-5.27-10.57-25.11-11-31.63-11.13A67.38,67.38,0,0,0,238.14,207.32Zm-2.48-14.55-.76-35.24,1.63-.25a53.84,53.84,0,0,1,9.31-.63c5.87.12,23.66.47,28.68,11.41a15.76,15.76,0,0,1-.25,13.31c-4,7.8-14.56,9.28-24.74,10.7a77.36,77.36,0,0,1-12.06.74Zm1.8-33.09.66,30.62a74.52,74.52,0,0,0,11.06-.71c9.55-1.34,19.43-2.72,22.86-9.37a13.16,13.16,0,0,0,.2-11.11c-4.37-9.51-21-9.84-26.43-10A51.82,51.82,0,0,0,237.46,159.68Z"/><path class="cls-5" d="M229.26,309.42v-.7l-29,.61.07-26.54-36.42.83,10.61-62.93,13.69-.11-.61-40.82-20.55.13-.1-59.32,31.41-.77-.42-26.07L247,93l38.7-.87.22,29.54c14.63,4,28.3,13,34.84,27.77a52.78,52.78,0,0,1,1.94,38.5c.83.91,1.63,1.85,2.39,2.82,18.42,23.57,10.41,59.36-9.06,75.61-7.9,6.59-16.58,9.29-23.55,11.47q-2.2.67-4.44,1.26l.6,28.43Z"/><circle class="cls-6" cx="248.57" cy="202.32" r="140.58"/><path class="cls-5" d="M307.74,204.31c-4.91-6.27-11.9-9-16.9-10.21l-1.55-.37,1.38-.78a26.55,26.55,0,0,0,11.4-12.7,31.15,31.15,0,0,0-1.45-21.91c-5.4-12.2-22.15-17.9-35.91-17.21l-.66,0-.2-26.56-15.12.34,1.07,24.9-14.13.91-.43-25.55-15,.2.42,25.82-31.73.78,0,15.76,11-.06c.81-.06,5.18-.16,7.81,3.14a8.07,8.07,0,0,1,1.57,3.36l1.06,71.32c0,.39.09,4-2.71,5.9a6.06,6.06,0,0,1-3,1l-11.57.09L190,261l32.38-.74-.08,26.59,15.44-.33-.57-25.84,13.63-.25.25,26.27,15.14-.47-.56-26.15.63,0a72.09,72.09,0,0,0,19.66-3.24c5.9-1.83,11.47-3.56,16-7.35C313.19,240.09,318.31,217.83,307.74,204.31Zm-71.56-45.7.54-.09a53.35,53.35,0,0,1,9.09-.61c5.66.11,22.87.44,27.57,10.68a14.4,14.4,0,0,1-.23,12.21c-3.72,7.22-13.93,8.65-23.79,10a76.14,76.14,0,0,1-11.87.72h-.6Zm44.53,72.17c-4.38,7.91-16.49,9.44-28.2,10.92a97.63,97.63,0,0,1-14.09.75l-.6,0-1-36.2.56-.07a67.1,67.1,0,0,1,10.79-.64c6.7.14,27.13.57,32.74,11.82A14.81,14.81,0,0,1,280.71,230.78Z"/><path class="cls-5" d="M221,288.17l.08-26.58-32.61.74,3.56-21.06,12.62-.09a4.73,4.73,0,0,0,2.3-.79c2.29-1.55,2.17-4.67,2.17-4.8l-1.06-71.23a6.81,6.81,0,0,0-1.3-2.72c-2.3-2.89-6.3-2.72-6.75-2.68l-12.31.08,0-18.25,31.71-.78L219,114.17l17.49-.23.43,25.49,11.6-.75-1.08-25,17.68-.39.2,26.52c14.05-.5,30.92,5.45,36.47,18a32.13,32.13,0,0,1,1.48,22.85,27.65,27.65,0,0,1-10.67,12.57c5,1.41,11.48,4.31,16.15,10.28h0c11,14.05,5.69,37.16-6,46.93-4.73,3.95-10.42,5.72-16.44,7.59a73.67,73.67,0,0,1-19.38,3.28l.56,26.14-17.67.56-.24-26.29-11.11.2.57,25.84Zm2.6-29.15-.08,26.58,12.89-.27-.57-25.84,16.17-.3.24,26.26,12.62-.4-.56-26.16,1.87-.05a71.51,71.51,0,0,0,19.32-3.17c5.78-1.8,11.24-3.5,15.59-7.13,10.85-9.06,15.79-30.47,5.64-43.46-4.68-6-11.4-8.61-16.2-9.76l-4.66-1.11,4.17-2.36a25.18,25.18,0,0,0,10.85-12.08,30.19,30.19,0,0,0-1.44-20.92c-5.17-11.69-21.37-17.13-34.7-16.46l-2,.09-.2-26.58-12.57.28L251.11,141l-16.67,1.07L234,116.48l-12.47.17.41,25.81-31.74.78,0,13.27,9.72-.06c.88-.06,5.77-.18,8.8,3.62a9.39,9.39,0,0,1,1.82,3.88l0,.24,1.06,71.32c0,.44.12,4.66-3.26,7a7.28,7.28,0,0,1-3.62,1.22l-10.59.08-2.69,16Zm13-15.36-1-38.51,1.66-.24a68.5,68.5,0,0,1,11-.65c6.91.14,27.89.59,33.84,12.52a16.11,16.11,0,0,1-.25,14.61c-4.69,8.46-17.12,10-29.14,11.55a98.77,98.77,0,0,1-14.27.76Zm1.54-36.34.9,33.88a95.47,95.47,0,0,0,13.31-.75c11.4-1.44,23.19-2.93,27.26-10.28h0a13.53,13.53,0,0,0,.2-12.27c-5.27-10.57-25.11-11-31.63-11.13A67.38,67.38,0,0,0,238.14,207.32Zm-2.48-14.55-.76-35.24,1.63-.25a53.84,53.84,0,0,1,9.31-.63c5.87.12,23.66.47,28.68,11.41a15.76,15.76,0,0,1-.25,13.31c-4,7.8-14.56,9.28-24.74,10.7a77.36,77.36,0,0,1-12.06.74Zm1.8-33.09.66,30.62a74.52,74.52,0,0,0,11.06-.71c9.55-1.34,19.43-2.72,22.86-9.37a13.16,13.16,0,0,0,.2-11.11c-4.37-9.51-21-9.84-26.43-10A51.82,51.82,0,0,0,237.46,159.68Z"/></g><path class="cls-2" d="M224.17,378.56c-30.1-55.26-45.63-113.5-46.15-173.1-.54-61.7,15-122,46.15-179.22l21.07,11.48c-29.19,53.59-43.73,110-43.23,167.53.48,55.62,15,110.07,43.23,161.84Z"/><path class="cls-2" d="M271,378.56l-21.07-11.47c28.2-51.77,42.74-106.22,43.23-161.84.5-57.58-14-113.94-43.23-167.53L271,26.24c31.16,57.22,46.69,117.52,46.15,179.22C316.58,265.06,301.05,323.3,271,378.56Z"/></svg>