<svg id="Layer_1" data-name="Layer 1" xmlns="http://www.w3.org/2000/svg" xmlns:xlink="http://www.w3.org/1999/xlink" viewBox="0 0 838.5 210.28"><defs><style>.cls-1{fill:none;}.cls-2{fill:#231f20;}.cls-3{clip-path:url(#clip-path);}.cls-4{fill:#1e1e1e;}.cls-5{fill:#fff;}</style><clipPath id="clip-path"><path class="cls-1" d="M403.31,110.14c-2,34.59-18.35,74.22-32.6,73.51-14.45-.72-25.89-42.9-25.79-76.52.11-37.52,14.65-82.44,29.61-82.44S405.66,70.08,403.31,110.14Z"/></clipPath></defs><path class="cls-2" d="M65.17,157.48q-11.27,0-17.83-4.1a22.15,22.15,0,0,1-9.25-11.52A51,51,0,0,1,35.4,124.4V88.62a51.83,51.83,0,0,1,2.69-17.71,21.86,21.86,0,0,1,9.25-11.46q6.55-4.05,17.83-4,11,0,17.22,3.61a20,20,0,0,1,8.76,10.11,40.27,40.27,0,0,1,2.57,15v8.58H72.28V82.73A48.4,48.4,0,0,0,72,77.1a8.31,8.31,0,0,0-1.77-4.48q-1.47-1.77-5-1.77t-5.08,1.84A8.63,8.63,0,0,0,58,77.28a38.68,38.68,0,0,0-.42,5.82v46.69a30.73,30.73,0,0,0,.55,6.06,8.39,8.39,0,0,0,2.2,4.42,6.57,6.57,0,0,0,4.84,1.65q3.43,0,4.9-1.78a8.76,8.76,0,0,0,1.84-4.59,43.66,43.66,0,0,0,.37-5.76V119.37H93.72V128a42.6,42.6,0,0,1-2.51,15.13,20.66,20.66,0,0,1-8.7,10.54Q76.33,157.49,65.17,157.48Z"/><path class="cls-2" d="M140.29,157.48q-11.16,0-17.65-3.92a21.91,21.91,0,0,1-9.31-11.27,48.93,48.93,0,0,1-2.82-17.53V87.88a48.3,48.3,0,0,1,2.82-17.52,21.65,21.65,0,0,1,9.31-11.09q6.49-3.87,17.65-3.86t17.83,3.86a21.58,21.58,0,0,1,9.37,11.09,48.3,48.3,0,0,1,2.82,17.52v36.88a48.93,48.93,0,0,1-2.82,17.53,21.82,21.82,0,0,1-9.37,11.27Q151.57,157.49,140.29,157.48Zm0-15.56q3.44,0,5-1.71a8.66,8.66,0,0,0,2.09-4.42,31.28,31.28,0,0,0,.49-5.51V82.49a31.15,31.15,0,0,0-.49-5.58,8.62,8.62,0,0,0-2.09-4.35q-1.59-1.71-5-1.71a6.21,6.21,0,0,0-4.78,1.71,8.53,8.53,0,0,0-2.08,4.35,30.26,30.26,0,0,0-.49,5.58v47.79a34.44,34.44,0,0,0,.43,5.51,8.37,8.37,0,0,0,2,4.42Q136.86,141.92,140.29,141.92Z"/><path class="cls-2" d="M189.92,156V56.75h21.93V156Z"/><path class="cls-2" d="M232.81,156V56.75h15.44l20.34,47.8V56.75h18.13V156H271.9l-20.35-51.46V156Z"/><path class="cls-2" d="M457.67,156V56.75H491q8.94,0,14.7,3.37a20.61,20.61,0,0,1,8.58,9.81,38.8,38.8,0,0,1,2.82,15.62q0,11.52-3.8,17.59a19.75,19.75,0,0,1-10.3,8.39,43,43,0,0,1-14.58,2.33H479.6V156ZM479.6,98.54H487a10.61,10.61,0,0,0,6.13-1.47,7.08,7.08,0,0,0,2.76-4.41,35,35,0,0,0,.67-7.48,35.57,35.57,0,0,0-.55-6.67,7.63,7.63,0,0,0-2.64-4.6c-1.39-1.14-3.55-1.72-6.49-1.72H479.6Z"/><path class="cls-2" d="M562.44,157.48q-11.4,0-17.83-3.73a20.08,20.08,0,0,1-9-10.91A52.31,52.31,0,0,1,533,125.25V56.75h21.69v71.81a38.29,38.29,0,0,0,.49,6.13,10,10,0,0,0,2.14,5,6.28,6.28,0,0,0,5.09,2q3.55,0,5.14-2a10,10,0,0,0,2-5,45,45,0,0,0,.42-6.13V56.75h21.82v68.5a51.2,51.2,0,0,1-2.64,17.59,20.45,20.45,0,0,1-9,10.91Q573.84,157.49,562.44,157.48Z"/><path class="cls-2" d="M611.94,156V56.75h27.33A60.89,60.89,0,0,1,656.67,59a21.17,21.17,0,0,1,11.46,7.9q4.1,5.7,4.1,16.12a54.06,54.06,0,0,1-1,10.9,20.35,20.35,0,0,1-3.61,8.28A20,20,0,0,1,660.1,108l13.6,48H651l-10.9-44.48h-6.25V156Zm21.94-57.1H640a13.31,13.31,0,0,0,7.24-1.66,8.75,8.75,0,0,0,3.61-4.77,24.17,24.17,0,0,0,1-7.54q0-6.37-2.33-9.93T641,71.46h-7.11Z"/><path class="cls-2" d="M717.45,157.48q-9.32,0-15.56-3.31a21.15,21.15,0,0,1-9.44-10.23q-3.18-6.91-3.55-18l18.75-2.82a45,45,0,0,0,1.16,10.3,11.32,11.32,0,0,0,2.94,5.63,6.6,6.6,0,0,0,4.6,1.72q3.42,0,4.47-2.33a11.94,11.94,0,0,0,1-4.9,17.7,17.7,0,0,0-2.94-10.36,46.17,46.17,0,0,0-8-8.51l-8.58-7.48a47.65,47.65,0,0,1-9.5-10.84q-3.86-6.08-3.86-15,0-12.63,7.48-19.3t20.34-6.68q8,0,12.8,2.69A18.89,18.89,0,0,1,737,65.15a29.39,29.39,0,0,1,3.43,9.19,58.48,58.48,0,0,1,1,9.25L722.6,85.92q-.14-4.41-.55-7.66a10.54,10.54,0,0,0-1.78-5,4.89,4.89,0,0,0-4.17-1.78A4.74,4.74,0,0,0,711.63,74a10.64,10.64,0,0,0-1.41,5.15,14.6,14.6,0,0,0,2.63,9,51.56,51.56,0,0,0,6.93,7.29l8.21,7.23a55.84,55.84,0,0,1,11,12.5q4.47,7,4.47,17.27a25.5,25.5,0,0,1-3.19,12.69,23.24,23.24,0,0,1-9,9A27.44,27.44,0,0,1,717.45,157.48Z"/><path class="cls-2" d="M758.26,156V56.75h44.6v15H780.19V96.34h17.28v15.19H780.19v29.66h22.92V156Z"/><path class="cls-2" d="M372.11,190.16c-39.58,0-71.78-38.14-71.78-85s32.2-85,71.78-85,71.78,38.14,71.78,85S411.69,190.16,372.11,190.16Zm0-159c-33.52,0-60.78,33.2-60.78,74s27.26,74,60.78,74,60.78-33.21,60.78-74S405.62,31.12,372.11,31.12Z"/><g class="cls-3"><circle class="cls-4" cx="373.72" cy="105.78" r="64.45"/><path class="cls-5" d="M373.8,179.74c-1.1,0-2.21,0-3.31-.08a73.43,73.43,0,1,1,3.31.08Zm-.11-128.91a55.12,55.12,0,1,0,2.43.06Q374.89,50.83,373.69,50.83Z"/><path class="cls-5" d="M400.84,106.7A13.76,13.76,0,0,0,393.1,102l-.71-.17.63-.36a12.21,12.21,0,0,0,5.23-5.82,14.33,14.33,0,0,0-.67-10c-2.47-5.59-10.15-8.2-16.46-7.89l-.3,0-.1-12.18-6.93.16.49,11.42-6.48.41-.19-11.71-6.87.09.19,11.84-14.55.36v7.22l5,0A4.42,4.42,0,0,1,355,86.77a3.83,3.83,0,0,1,.72,1.54l.48,32.7a3.23,3.23,0,0,1-1.24,2.71,2.9,2.9,0,0,1-1.37.46l-5.31,0-1.43,8.49,14.84-.34,0,12.19,7.08-.15-.26-11.85,6.25-.12.11,12.05,7-.22-.26-12h.29a33.06,33.06,0,0,0,9-1.49c2.71-.84,5.26-1.63,7.34-3.37C403.35,123.1,405.69,112.9,400.84,106.7Zm-32.8-21,.25,0a25.22,25.22,0,0,1,4.16-.28c2.6.06,10.49.21,12.64,4.9a6.61,6.61,0,0,1-.1,5.6c-1.71,3.31-6.39,4-10.91,4.6a35.4,35.4,0,0,1-5.44.33h-.28Zm20.41,33.09c-2,3.63-7.56,4.33-12.92,5a45.12,45.12,0,0,1-6.46.34h-.28l-.44-16.6.25,0a31.55,31.55,0,0,1,4.95-.29c3.07.07,12.44.26,15,5.42A6.79,6.79,0,0,1,388.45,118.83Z"/><path class="cls-5" d="M365.43,154.29V154l-13.29.28,0-12.17-16.59.38,4.67-27.69,6.37,0-.3-19.87-9.41.06-.05-26,14.42-.36-.2-11.94,22.5-.34,16.57-.37.1,13.43c6.68,1.77,13.06,5.79,16,12.49A23.5,23.5,0,0,1,407.14,99l-.12.31h0c.46.49.9,1,1.31,1.52h0c8.25,10.55,4.66,26.58-4.07,33.86-3.54,2.95-7.46,4.17-10.6,5.15-.81.25-1.63.48-2.45.68l.28,12.93Z"/><path class="cls-5" d="M361.09,145.14l0-12.18-14.94.34,1.62-9.66,5.79,0a2.24,2.24,0,0,0,1.06-.36,2.71,2.71,0,0,0,1-2.2l-.49-32.66a3.21,3.21,0,0,0-.59-1.25,3.82,3.82,0,0,0-3.09-1.22l-5.65,0,0-8.37,14.54-.35-.19-11.85,8-.1.2,11.68,5.31-.34-.49-11.44L381.3,65l.09,12.16c6.44-.23,14.18,2.49,16.72,8.24a14.81,14.81,0,0,1,.68,10.48,12.71,12.71,0,0,1-4.89,5.76,14.15,14.15,0,0,1,7.4,4.71h0c5,6.44,2.61,17-2.76,21.52-2.17,1.81-4.78,2.62-7.54,3.48a33.64,33.64,0,0,1-8.88,1.5l.25,12-8.1.26L374.16,133l-5.09.1.26,11.84Zm1.19-13.36,0,12.19,5.91-.13L367.89,132l7.41-.14.11,12,5.79-.19-.26-12,.86,0a32.72,32.72,0,0,0,8.86-1.46c2.65-.82,5.15-1.6,7.14-3.26,5-4.16,7.25-14,2.59-19.93a13.19,13.19,0,0,0-7.43-4.47l-2.13-.51,1.91-1.08a11.62,11.62,0,0,0,5-5.54,14,14,0,0,0-.66-9.59c-2.38-5.36-9.8-7.86-15.91-7.55l-.9,0-.1-12.19-5.76.13.49,11.39-7.64.5L367,66.43l-5.72.08.19,11.83L347,78.7v6.08l4.45,0a4.9,4.9,0,0,1,4,1.66,4.14,4.14,0,0,1,.83,1.77v.12l.49,32.69a3.81,3.81,0,0,1-1.5,3.19,3.26,3.26,0,0,1-1.66.56l-4.85,0-1.24,7.33Zm6-7-.47-17.66.76-.11a31.5,31.5,0,0,1,5-.29c3.17.06,12.79.27,15.51,5.73a7.39,7.39,0,0,1-.11,6.7c-2.15,3.88-7.85,4.6-13.36,5.3a46.31,46.31,0,0,1-6.55.35Zm.71-16.66.41,15.53a44.47,44.47,0,0,0,6.1-.34c5.23-.66,10.63-1.35,12.5-4.72h0a6.19,6.19,0,0,0,.09-5.62c-2.41-4.85-11.51-5-14.5-5.1A29.43,29.43,0,0,0,368.94,108.08Zm-1.14-6.67-.35-16.16.75-.11a24.39,24.39,0,0,1,4.27-.29c2.69.05,10.84.21,13.15,5.23a7.23,7.23,0,0,1-.12,6.1c-1.84,3.58-6.67,4.25-11.34,4.91a35.32,35.32,0,0,1-5.53.33Zm.82-15.17.31,14A36,36,0,0,0,374,100c4.38-.62,8.91-1.25,10.48-4.3a6,6,0,0,0,.09-5.09c-2-4.36-9.62-4.51-12.12-4.56A22.33,22.33,0,0,0,368.62,86.24Z"/><path class="cls-5" d="M364.86,154.89v-.32l-13.3.28,0-12.17-16.7.38,4.87-28.85,6.28,0-.28-18.72-9.42.06,0-27.19,14.4-.36-.19-12L373,55.67l17.74-.4.11,13.54c6.7,1.86,13,6,16,12.74a24.19,24.19,0,0,1,.88,17.65c.39.41.75.85,1.1,1.29,8.45,10.81,4.78,27.21-4.15,34.66-3.63,3-7.6,4.27-10.8,5.26-.67.21-1.35.4-2,.58l.27,13Z"/><circle class="cls-2" cx="373.72" cy="105.78" r="64.45"/><path class="cls-5" d="M400.84,106.7A13.76,13.76,0,0,0,393.1,102l-.71-.17.63-.36a12.21,12.21,0,0,0,5.23-5.82,14.33,14.33,0,0,0-.67-10c-2.47-5.59-10.15-8.2-16.46-7.89l-.3,0-.1-12.18-6.93.16.49,11.42-6.48.41-.19-11.71-6.87.09.19,11.84-14.55.36v7.22l5,0A4.42,4.42,0,0,1,355,86.77a3.83,3.83,0,0,1,.72,1.54l.48,32.7a3.23,3.23,0,0,1-1.24,2.71,2.9,2.9,0,0,1-1.37.46l-5.31,0-1.43,8.49,14.84-.34,0,12.19,7.08-.15-.26-11.85,6.25-.12.11,12.05,7-.22-.26-12h.29a33.06,33.06,0,0,0,9-1.49c2.71-.84,5.26-1.63,7.34-3.37C403.35,123.1,405.69,112.9,400.84,106.7Zm-32.8-21,.25,0a25.22,25.22,0,0,1,4.16-.28c2.6.06,10.49.21,12.64,4.9a6.61,6.61,0,0,1-.1,5.6c-1.71,3.31-6.39,4-10.91,4.6a35.4,35.4,0,0,1-5.44.33h-.28Zm20.41,33.09c-2,3.63-7.56,4.33-12.92,5a45.12,45.12,0,0,1-6.46.34h-.28l-.44-16.6.25,0a31.55,31.55,0,0,1,4.95-.29c3.07.07,12.44.26,15,5.42A6.79,6.79,0,0,1,388.45,118.83Z"/><path class="cls-5" d="M361.09,145.14l0-12.18-14.94.34,1.62-9.66,5.79,0a2.24,2.24,0,0,0,1.06-.36,2.71,2.71,0,0,0,1-2.2l-.49-32.66a3.21,3.21,0,0,0-.59-1.25,3.82,3.82,0,0,0-3.09-1.22l-5.65,0,0-8.37,14.54-.35-.19-11.85,8-.1.2,11.68,5.31-.34-.49-11.44L381.3,65l.09,12.16c6.44-.23,14.18,2.49,16.72,8.24a14.81,14.81,0,0,1,.68,10.48,12.71,12.71,0,0,1-4.89,5.76,14.15,14.15,0,0,1,7.4,4.71h0c5,6.44,2.61,17-2.76,21.52-2.17,1.81-4.78,2.62-7.54,3.48a33.64,33.64,0,0,1-8.88,1.5l.25,12-8.1.26L374.16,133l-5.09.1.26,11.84Zm1.19-13.36,0,12.19,5.91-.13L367.89,132l7.41-.14.11,12,5.79-.19-.26-12,.86,0a32.72,32.72,0,0,0,8.86-1.46c2.65-.82,5.15-1.6,7.14-3.26,5-4.16,7.25-14,2.59-19.93a13.19,13.19,0,0,0-7.43-4.47l-2.13-.51,1.91-1.08a11.62,11.62,0,0,0,5-5.54,14,14,0,0,0-.66-9.59c-2.38-5.36-9.8-7.86-15.91-7.55l-.9,0-.1-12.19-5.76.13.49,11.39-7.64.5L367,66.43l-5.72.08.19,11.83L347,78.7v6.08l4.45,0a4.9,4.9,0,0,1,4,1.66,4.14,4.14,0,0,1,.83,1.77v.12l.49,32.69a3.81,3.81,0,0,1-1.5,3.19,3.26,3.26,0,0,1-1.66.56l-4.85,0-1.24,7.33Zm6-7-.47-17.66.76-.11a31.5,31.5,0,0,1,5-.29c3.17.06,12.79.27,15.51,5.73a7.39,7.39,0,0,1-.11,6.7c-2.15,3.88-7.85,4.6-13.36,5.3a46.31,46.31,0,0,1-6.55.35Zm.71-16.66.41,15.53a44.47,44.47,0,0,0,6.1-.34c5.23-.66,10.63-1.35,12.5-4.72h0a6.19,6.19,0,0,0,.09-5.62c-2.41-4.85-11.51-5-14.5-5.1A29.43,29.43,0,0,0,368.94,108.08Zm-1.14-6.67-.35-16.16.75-.11a24.39,24.39,0,0,1,4.27-.29c2.69.05,10.84.21,13.15,5.23a7.23,7.23,0,0,1-.12,6.1c-1.84,3.58-6.67,4.25-11.34,4.91a35.32,35.32,0,0,1-5.53.33Zm.82-15.17.31,14A36,36,0,0,0,374,100c4.38-.62,8.91-1.25,10.48-4.3a6,6,0,0,0,.09-5.09c-2-4.36-9.62-4.51-12.12-4.56A22.33,22.33,0,0,0,368.62,86.24Z"/></g><path class="cls-2" d="M362.53,186.59c-13.8-25.34-20.92-52-21.16-79.37-.25-28.28,6.87-55.93,21.16-82.16l9.66,5.26c-13.38,24.57-20.05,50.41-19.82,76.81.22,25.5,6.89,50.46,19.82,74.2Z"/><path class="cls-2" d="M384,186.59l-9.66-5.26c12.93-23.74,19.6-48.7,19.82-74.2.23-26.4-6.44-52.24-19.82-76.81L384,25.06c14.29,26.23,21.4,53.88,21.16,82.16C404.9,134.55,397.78,161.25,384,186.59Z"/></svg>